<?xml version="1.0" encoding="utf-8"?>
<!-- Generator: Adobe Illustrator 24.3.0, SVG Export Plug-In . SVG Version: 6.00 Build 0)  -->
<svg version="1.1" id="Layer_1" xmlns="http://www.w3.org/2000/svg" xmlns:xlink="http://www.w3.org/1999/xlink" x="0px" y="0px"
	 viewBox="0 0 120 120" width="100" height="100" style="enable-background:new 0 0 100 100;" xml:space="preserve">
<style type="text/css">
	.st0{fill:#FFFFFF;}
	.st1{fill:#FFFFFF;stroke:#FFFFFF;stroke-miterlimit:10;}
</style>
<g>
	<path class="st0" d="M49.67,34.07c-8.82,0-16,7.18-16,16s7.18,16,16,16c8.82,0,16-7.18,16-16S58.5,34.07,49.67,34.07z M49.67,65.05
		c-8.28,0-15-6.71-15-14.98c0-8.27,6.72-14.98,15-14.98c8.28,0,15,6.71,15,14.98C64.67,58.34,57.96,65.05,49.67,65.05z"/>
	<path class="st1" d="M47.67,53.91v2.01c0,1.11,0.9,2.01,2,2.01l0,0c1.1,0,2-0.9,2-2.01v-2.01v-7.96v-2.01c0-1.11-0.9-2.01-2-2.01
		l0,0c-1.1,0-2,0.9-2,2.01v2.01V53.91z"/>
	<path class="st1" d="M40.67,47.9c0-1.11,0.9-2.01,2-2.01l0,0c1.1,0,2,0.9,2,2.01v8.02c0,1.11-0.9,2.01-2,2.01l0,0
		c-1.1,0-2-0.9-2-2.01V47.9z"/>
	<path class="st1" d="M54.67,55.92c0,1.11,0.9,2.01,2,2.01l0,0c1.1,0,2-0.9,2-2.01v-3.99c0-1.11-0.9-2.01-2-2.01l0,0
		c-1.1,0-2,0.9-2,2.01V55.92z"/>
</g>
</svg>
