<?xml version="1.0" encoding="utf-8"?>
<!-- Generator: Adobe Illustrator 24.3.0, SVG Export Plug-In . SVG Version: 6.00 Build 0)  -->
<svg version="1.1" id="Layer_1" xmlns="http://www.w3.org/2000/svg" xmlns:xlink="http://www.w3.org/1999/xlink" x="0px" y="0px"
	 viewBox="0 0 120 120" width="100" height="100" style="enable-background:new 0 0 100 100;" xml:space="preserve">
<style type="text/css">
	.st0{fill:#FFFFFF;}
</style>
<g>
	<path class="st0" d="M49.67,34.07c-8.82,0-16,7.18-16,16s7.18,16,16,16c8.82,0,16-7.18,16-16S58.5,34.07,49.67,34.07z M49.67,65.05
		c-8.28,0-15-6.71-15-14.98c0-8.27,6.72-14.98,15-14.98c8.28,0,15,6.71,15,14.98C64.67,58.34,57.96,65.05,49.67,65.05z"/>
	<path class="st0" d="M60.62,48.51l-16.26-8.21c-0.63-0.32-1.3-0.31-1.84,0.03c-0.54,0.33-0.84,0.94-0.84,1.65v16.19
		c0,0.71,0.31,1.31,0.84,1.65c0.27,0.17,0.59,0.26,0.91,0.26c0.31,0,0.62-0.08,0.93-0.23l16.27-8.22c0.67-0.34,1.05-0.9,1.05-1.55
		C61.67,49.42,61.29,48.85,60.62,48.51z"/>
</g>
</svg>
