<?xml version="1.0" encoding="utf-8"?>
<!-- Generator: Adobe Illustrator 24.3.0, SVG Export Plug-In . SVG Version: 6.00 Build 0)  -->
<svg version="1.1" id="Layer_1" xmlns="http://www.w3.org/2000/svg" xmlns:xlink="http://www.w3.org/1999/xlink" x="0px" y="0px"
	 viewBox="0 0 120 120" width="100" height="100" style="enable-background:new 0 0 100 100;" xml:space="preserve">
<style type="text/css">
	.st0{fill:#FFFFFF;}
</style>
<g>
	<g>
		<path class="st0" d="M49.67,34.07c-8.82,0-16,7.18-16,16s7.18,16,16,16c8.82,0,16-7.18,16-16S58.5,34.07,49.67,34.07z
			 M49.67,65.05c-8.28,0-15-6.71-15-14.98c0-8.27,6.72-14.98,15-14.98c8.28,0,15,6.71,15,14.98C64.67,58.34,57.96,65.05,49.67,65.05
			z"/>
	</g>
	<g>
		<g>
			<rect x="46.67" y="48.07" class="st0" width="12" height="4"/>
		</g>
		<g>
			<circle class="st0" cx="42.67" cy="50.07" r="2"/>
		</g>
	</g>
	<g>
		<g>
			<rect x="46.67" y="54.07" class="st0" width="12" height="4"/>
		</g>
		<g>
			<circle class="st0" cx="42.67" cy="56.07" r="2"/>
		</g>
	</g>
	<g>
		<g>
			<rect x="46.67" y="42.07" class="st0" width="12" height="4"/>
		</g>
		<g>
			<circle class="st0" cx="42.67" cy="44.07" r="2"/>
		</g>
	</g>
</g>
</svg>
