<svg xmlns="http://www.w3.org/2000/svg" viewBox="0 0 525 49" width="525" height="49">
	<defs>
		<clipPath clipPathUnits="userSpaceOnUse" id="mainLogocp1">
			<path d="M-83 -93L1837 -93L1837 987L-83 987Z" />
		</clipPath>
		<clipPath clipPathUnits="userSpaceOnUse" id="mainLogocp2">
			<path d="M0 0L48.79 0L48.79 48.74L0 48.74L0 0Z" />
		</clipPath>
		<clipPath clipPathUnits="userSpaceOnUse" id="mainLogocp3">
			<path d="M-12.19 -12.49L61.04 -12.49L61.04 60.73L-12.19 60.73L-12.19 -12.49Z" />
		</clipPath>
	</defs>
	<style>
		tspan { white-space:pre }
		.mainLogoshp0 { fill: #ffffff } 
	</style>
	<g id="Web 1920 – 77" clip-path="url(#mainLogocp1)">
		<g id="Group 697">
			<g id="Group 695">
				<g id="Group 694">
					<g id="Group 693" clip-path="url(#mainLogocp2)">
						<g id="Group 692">
							<g id="Group 691" clip-path="url(#mainLogocp3)">
								<path id="Path 458" class="mainLogoshp0" d="M11.3 13.91C11.97 13.87 13.04 13.74 13.69 13.6C15.3 13.28 16.9 12.92 18.5 12.57C20.09 12.22 21.4 11.43 22.37 10.12C23.15 9.07 23.91 8.02 24.7 6.99C25.73 5.65 26.85 4.4 28.22 3.39C29.14 2.7 31.62 1.26 31.8 1.17L31.65 1.11C29.34 0.39 26.9 0 24.36 0C16.97 0 10.35 3.3 5.88 8.49C6.2 8.96 8.43 12.16 9.15 12.97C9.73 13.62 10.44 13.97 11.3 13.91Z" />
								<path id="Path 459" class="mainLogoshp0" d="M0.69 20.64C1.54 19.21 2.73 18.17 4.29 17.57C4.85 17.35 5.44 17.18 6 16.94C6.91 16.57 7.35 15.76 7.39 14.88C7.41 14.38 7.21 13.93 6.9 13.54C6.36 12.83 5.82 12.13 5.27 11.42C5.07 11.16 4.8 10.86 4.6 10.6C4.48 10.46 4.32 10.56 4.18 10.71C2.05 13.84 0.64 17.49 0.17 21.43L0.48 20.94C0.56 20.82 0.63 20.74 0.69 20.64Z" />
								<path id="Path 460" class="mainLogoshp0" d="M2.58 32.89C3.19 33.36 3.51 33.38 3.97 32.76C4.21 32.44 4.43 32.1 4.65 31.78C5.5 30.56 6.42 29.41 7.45 28.35C8.19 27.59 8.94 26.84 9.66 26.06C10.72 24.92 11.18 23.57 10.91 22.02C10.72 20.97 10.19 20.14 9.31 19.55C8.34 18.91 7.25 18.85 6.15 19.01C5.23 19.15 4.4 19.56 3.6 20.01C2.79 20.48 2.11 21.11 1.51 21.82C1.15 22.25 0.13 23.45 0 24.98C0.03 26.08 0.12 27.16 0.29 28.23C0.98 31.52 2.58 32.89 2.58 32.89Z" />
								<path id="Path 461" class="mainLogoshp0" d="M40.44 41.29C39.92 41.08 39.42 40.84 38.89 40.65C38.19 40.39 37.49 40.41 36.79 40.72C36.23 40.96 35.73 41.29 35.24 41.65L34.43 42.24C30.72 44.82 26.29 46.27 21.55 46.16C13.54 45.97 6.71 41.4 2.81 34.59L2.15 33.5C2 33.26 1.76 33.36 1.94 33.95C5.66 42.65 14.3 48.74 24.36 48.74C24.78 48.74 25.19 48.73 25.6 48.71C25.63 48.71 25.65 48.71 25.67 48.71C26.03 48.69 26.38 48.66 26.72 48.63C26.96 48.6 27.2 48.57 27.43 48.54C27.56 48.53 27.69 48.51 27.82 48.49C28.15 48.45 28.47 48.39 28.8 48.33C28.83 48.33 28.87 48.32 28.9 48.31C30.75 47.96 32.53 47.4 34.21 46.66L34.26 46.64C34.57 46.51 34.87 46.36 35.16 46.22C35.28 46.16 35.39 46.1 35.5 46.04C35.7 45.94 35.89 45.84 36.08 45.74C36.39 45.57 36.69 45.39 36.99 45.21C38.44 44.33 39.78 43.31 41.01 42.16C41.14 41.93 41.11 41.63 40.44 41.29Z" />
								<path id="Path 462" class="mainLogoshp0" d="M32.15 2.95C31 3.63 30.04 4.43 29.15 5.31C28.61 5.84 28.08 6.39 27.59 6.97C27.08 7.58 26.6 8.2 26.14 8.85C25.79 9.36 25.57 9.93 25.58 10.58C25.59 11.4 26.07 11.89 26.9 11.89C27.47 11.89 28.01 11.73 28.56 11.61C29.62 11.38 30.67 11.11 31.74 10.93C32.6 10.79 33.47 10.71 34.35 10.67C35.49 10.6 36.63 10.64 37.76 10.82C38.52 10.94 39.28 11.1 40.03 11.3C41.02 11.56 41.97 11.96 42.86 12.48C43.68 12.96 44.44 13.53 45.18 14.11C45.31 14.22 45.57 14.43 45.71 14.51C45.83 14.58 46.17 14.42 46.21 14.3C46.34 13.95 46.24 13.62 46.08 13.32L45.97 13.09C45.84 12.83 45.69 12.57 45.55 12.31C45.51 12.25 45.48 12.19 45.45 12.14C43.98 9.62 41.87 7.23 39.61 5.36C38.07 4.13 36.39 3.08 34.58 2.24C34 2.09 33.18 2.35 32.15 2.95Z" />
								<path id="Path 463" class="mainLogoshp0" d="M43.25 25.98C44.05 24.17 44.81 22.33 45.59 20.51C45.82 19.94 46.01 19.36 46.06 18.75C46.13 17.81 45.81 16.97 45.21 16.25C44.62 15.54 43.88 15 43.06 14.58C41.44 13.76 39.7 13.36 37.91 13.17C37.2 13.09 36.47 13.1 35.75 13.09C35.24 13.08 34.73 13.09 34.22 13.12C33.36 13.17 32.51 13.21 31.66 13.31C30.76 13.43 29.86 13.58 28.97 13.76C27.47 14.07 26.07 14.64 24.79 15.47C23.94 16.03 23.19 16.72 22.45 17.42C21.86 17.99 21.26 18.57 20.67 19.15C20.04 19.77 19.41 20.4 18.98 21.19C18.51 22.05 18.36 22.97 18.53 23.94C18.69 24.83 19.11 25.58 19.7 26.22C20.35 26.92 21.02 27.59 21.72 28.25C22.81 29.28 23.99 30.2 25.23 31.05C26.9 32.2 28.66 33.19 30.5 34.01C31.56 34.49 32.64 34.93 33.73 35.35C34.45 35.63 35.2 35.83 36 35.83C36.17 35.82 36.35 35.83 36.52 35.8C37.22 35.7 37.78 35.34 38.27 34.85C38.99 34.13 39.52 33.28 40.03 32.41C41.23 30.33 42.28 28.17 43.25 25.98Z" />
								<path id="Path 464" class="mainLogoshp0" d="M33.31 38.27C33.11 38.14 32.89 38.02 32.67 37.92C31.19 37.25 29.69 36.6 28.22 35.91C26.53 35.12 24.91 34.21 23.39 33.15C21.74 32 20.21 30.72 18.68 29.43C17.98 28.83 17.27 28.22 16.47 27.74C15.92 27.42 15.33 27.18 14.68 27.16C13.93 27.13 13.26 27.37 12.64 27.76C11.55 28.43 10.58 29.26 9.64 30.13C9.08 30.65 8.53 31.19 8.04 31.77C7.44 32.47 6.89 33.2 6.35 33.93C5.77 34.73 5.71 35.61 6.05 36.51C6.52 37.82 8 39.32 8 39.32C11.44 42.83 16.08 45 21.16 45.12C24.74 45.2 29.91 43.84 32.75 41.33C33.24 40.87 33.65 40.33 33.84 39.66C34.01 39.06 33.85 38.61 33.31 38.27Z" />
								<path id="Path 465" class="mainLogoshp0" d="M16.06 21.05C17.23 20.62 18.72 19.55 19.88 17.34C21.72 13.81 18.97 14.16 18.24 14.29C17.4 14.44 16.77 14.52 14.95 15.04C13.22 15.54 12.59 16.55 12.4 17.25C12.15 18.17 12.36 19.38 12.75 20.09C13.63 21.67 14.95 21.47 16.06 21.05Z" />
								<path id="Path 466" class="mainLogoshp0" d="M48.73 23.56C48.6 20.68 47.99 20.71 47.88 20.66C47.75 20.61 47.35 20.69 46.98 21.65C46.51 22.76 46.16 23.62 45.68 24.72C45 26.28 44.33 27.85 43.59 29.39C42.73 31.17 41.79 32.93 40.91 34.71C40.53 35.49 40.21 36.3 40.05 37.16C39.89 37.97 40.06 38.41 40.82 38.77C41.33 39.01 41.98 39.37 42.49 39.62C43.03 39.79 43.47 39.45 43.65 39.27C43.71 39.21 43.74 39.16 43.74 39.16C46.94 35.04 48.79 29.64 48.75 24.41C48.75 24.38 48.75 24.35 48.75 24.32C48.75 24.07 48.74 23.81 48.73 23.56Z" />
							</g>
						</g>
					</g>
				</g>
			</g>
			<g id="Group 696">
				<path id="Path 467" fill-rule="evenodd" class="mainLogoshp0" d="M76.71 28.06L69.2 28.06L67.33 34L65.21 34L71.51 14.75L74.34 14.75L80.84 34L78.69 34L76.71 28.06ZM69.75 26.36L76.16 26.36L72.91 16.26L69.75 26.36Z" />
				<path id="Path 468" class="mainLogoshp0" d="M98.17 14.75L98.17 34L96.32 34L96.19 31.61C95.11 32.88 93.27 34.33 90.27 34.33C86.06 34.33 84.24 31.42 84.24 27.81L84.24 14.75L86.31 14.75L86.31 27.9C86.31 30.54 87.44 32.66 90.68 32.66C93.54 32.66 95.14 31.03 96.1 29.52L96.1 14.75L98.17 14.75Z" />
				<path id="Path 469" class="mainLogoshp0" d="M116.04 16.45L110.29 16.45L110.29 34L108.23 34L108.23 16.45L102.5 16.45L102.5 14.75L116.04 14.75L116.04 16.45Z" />
				<path id="Path 470" fill-rule="evenodd" class="mainLogoshp0" d="M133.9 22.31L133.9 26.55C133.9 30.87 131.59 34.33 126.41 34.33C121.24 34.33 118.93 30.87 118.93 26.55L118.93 22.31C118.93 17.77 121.27 14.42 126.41 14.42C131.61 14.42 133.9 17.85 133.9 22.31ZM120.99 22.28L120.99 26.6C120.99 29.99 122.59 32.66 126.41 32.66C130.24 32.66 131.83 29.99 131.83 26.6L131.83 22.28C131.83 18.73 130.24 16.09 126.41 16.09C122.65 16.09 120.99 18.68 120.99 22.28Z" />
				<path id="Path 471" fill-rule="evenodd" class="mainLogoshp0" d="M152.53 22.45L152.53 25.8C152.53 30.84 149.56 34 144.06 34L139.27 34L139.27 14.75L144.74 14.75C149.92 14.75 152.53 17.83 152.53 22.45ZM150.47 22.39C150.47 18.71 148.51 16.42 144.63 16.42L141.33 16.42L141.33 32.33L144.06 32.33C148.27 32.33 150.47 30.07 150.47 25.86L150.47 22.39Z" />
				<path id="Path 472" class="mainLogoshp0" d="M159.88 16.42L159.88 23.25L167.64 23.25L167.64 24.95L159.88 24.95L159.88 32.33L168.24 32.33L168.24 34L157.87 34L157.82 34L157.82 14.75L159.88 14.75L168.24 14.75L168.24 16.42L159.88 16.42Z" />
				<path id="Path 473" class="mainLogoshp0" d="M171.96 28.69L173.94 28.69C174.08 30.81 175.35 32.63 179.06 32.63C182.78 32.63 183.71 30.79 183.71 29.36L183.71 28.72C183.71 26.77 182.56 26.05 179.67 25.12L176.89 24.21C173.92 23.22 172.71 21.98 172.71 19.64L172.71 19.04C172.71 16.97 174.47 14.42 179.14 14.42C183.52 14.42 185.64 16.78 185.77 19.84L183.79 19.84C183.66 17.96 182.56 16.09 179.14 16.09C175.82 16.09 174.8 17.77 174.8 19.04L174.8 19.59C174.8 21.02 175.65 21.84 178.29 22.7L181.07 23.58C184.18 24.57 185.77 25.86 185.77 28.58L185.77 29.27C185.77 31.86 183.88 34.33 179.06 34.33C174.52 34.33 172.18 32.05 171.96 28.69Z" />
				<path id="Path 474" class="mainLogoshp0" d="M204.96 32.55L204.93 33.98C204.65 34.11 204.27 34.2 203.8 34.2C202.53 34.2 201.79 33.76 200.86 32.41L195.63 24.76L192.9 28.17L192.9 34L190.92 34L190.92 14.75L192.9 14.75L192.9 25.36L201.35 14.75L203.61 14.75L196.89 23.27L202.64 31.58C203.19 32.35 203.61 32.63 204.38 32.6C204.6 32.6 204.82 32.57 204.96 32.55Z" />
				<path id="Path 475" fill-rule="evenodd" class="mainLogoshp0" d="M210.07 16.79L210.07 17.47C210.07 18.64 209.18 19.46 207.79 19.46C206.5 19.46 205.52 18.64 205.52 17.47L205.52 16.79C205.52 15.75 206.52 14.86 207.8 14.86C209.18 14.86 210.07 15.75 210.07 16.79ZM209.74 16.78C209.74 15.9 208.99 15.15 207.8 15.15C206.71 15.15 205.86 15.9 205.86 16.78L205.86 17.48C205.86 18.48 206.69 19.17 207.8 19.17C208.99 19.17 209.74 18.48 209.74 17.48L209.74 16.78ZM208.88 18.25C208.9 18.25 208.92 18.24 208.94 18.24L208.94 18.5C208.89 18.52 208.82 18.53 208.74 18.53C208.57 18.52 208.43 18.46 208.34 18.27L207.89 17.43C207.86 17.43 207.82 17.43 207.79 17.43L207.41 17.43L207.41 18.5L207.05 18.5L207.05 15.83L207.82 15.83C208.38 15.83 208.74 16.11 208.74 16.53L208.74 16.72C208.74 17.03 208.55 17.26 208.24 17.37L208.65 18.12C208.7 18.22 208.76 18.25 208.88 18.25ZM208.38 16.7L208.38 16.54C208.38 16.25 208.14 16.12 207.81 16.12L207.41 16.12L207.41 17.14L207.77 17.14C208.13 17.14 208.38 16.99 208.38 16.7Z" />
				<path id="Path 476" class="mainLogoshp0" d="M219.97 27.18L219.97 21.57C219.97 17.36 222.62 14.39 227.38 14.39C231.89 14.39 234.14 16.97 234.23 20.33L230.95 20.33C230.84 18.24 229.8 17.05 227.38 17.05C224.84 17.05 223.5 18.79 223.5 21.35L223.5 27.4C223.5 29.96 224.84 31.67 227.32 31.67C229.85 31.67 230.9 30.43 231.01 28.36L234.31 28.36C234.03 31.91 231.89 34.36 227.24 34.36C222.73 34.36 219.97 31.39 219.97 27.18Z" />
				<path id="Path 477" fill-rule="evenodd" class="mainLogoshp0" d="M253.5 22.23L253.5 26.55C253.5 31.03 250.88 34.36 245.57 34.36C240.32 34.36 237.68 31.03 237.68 26.55L237.68 22.23C237.68 17.69 240.29 14.39 245.57 14.39C250.88 14.39 253.5 17.69 253.5 22.23ZM241.14 22.2L241.14 26.6C241.14 29.63 242.55 31.69 245.57 31.69C248.6 31.69 250 29.63 250 26.6L250 22.2C250 19.09 248.57 17.05 245.57 17.05C242.57 17.05 241.14 19.09 241.14 22.2Z" />
				<path id="Path 478" class="mainLogoshp0" d="M272.63 14.75L272.63 34L268.61 34L261.05 19.09L261.05 34L257.99 34L257.99 14.75L262.15 14.75L269.55 29.19L269.55 14.75L272.63 14.75Z" />
				<path id="Path 479" class="mainLogoshp0" d="M276.62 28.34L279.92 28.34C280.03 30.1 280.88 31.67 284.21 31.67C287.15 31.67 287.9 30.29 287.9 29.19L287.9 28.58C287.9 26.96 287.02 26.44 284.24 25.56L281.46 24.68C278.51 23.77 277.28 22.39 277.28 19.97L277.28 19.34C277.28 17 279.23 14.39 284.21 14.39C288.56 14.39 291.17 16.48 291.31 20.05L288.06 20.05C287.92 18.4 286.96 16.97 284.24 16.97C281.51 16.97 280.8 18.21 280.8 19.28L280.8 19.75C280.8 20.83 281.49 21.51 283.88 22.23L286.66 23.08C289.82 24.07 291.39 25.56 291.39 28.28L291.39 29C291.39 31.91 289 34.36 284.21 34.36C279.48 34.36 276.86 32.08 276.62 28.34Z" />
				<path id="Path 480" class="mainLogoshp0" d="M308.3 17.41L302.91 17.41L302.91 34L299.44 34L299.44 17.41L294.02 17.41L294.02 14.75L302.91 14.75L308.3 14.75L308.3 17.41Z" />
				<path id="Path 481" fill-rule="evenodd" class="mainLogoshp0" d="M326.2 31.75L326.17 34C325.78 34.17 325.34 34.28 324.68 34.28C323.25 34.28 322.15 33.73 321.3 32.08L318.47 26.6L315.33 26.6L315.33 34L311.86 34L311.86 14.75L318.36 14.75C322.4 14.75 325.1 16.67 325.1 19.86L325.1 21.46C325.1 23.47 323.78 25.06 321.74 25.92L324.3 30.81C324.63 31.42 325.12 31.75 325.92 31.75L326.2 31.75ZM315.33 24.02L318.22 24.02C320.28 24.02 321.63 23.08 321.63 21.37L321.63 20C321.63 18.29 320.25 17.36 318.22 17.36L315.33 17.36L315.33 24.02Z" />
				<path id="Path 482" class="mainLogoshp0" d="M344.28 14.75L344.28 34L341.23 34L341.01 32.22C339.91 33.34 338.23 34.36 335.78 34.36C331.6 34.36 329.48 31.53 329.48 27.79L329.48 14.75L332.98 14.75L332.98 27.92C332.98 30.12 333.94 31.69 336.55 31.69C338.59 31.69 339.91 30.7 340.82 29.52L340.82 14.75L344.28 14.75Z" />
				<path id="Path 483" class="mainLogoshp0" d="M348.83 27.18L348.83 21.57C348.83 17.36 351.47 14.39 356.23 14.39C360.74 14.39 363 16.97 363.08 20.33L359.8 20.33C359.7 18.24 358.65 17.05 356.23 17.05C353.7 17.05 352.35 18.79 352.35 21.35L352.35 27.4C352.35 29.96 353.7 31.67 356.17 31.67C358.7 31.67 359.75 30.43 359.86 28.36L363.16 28.36C362.89 31.91 360.74 34.36 356.09 34.36C351.58 34.36 348.83 31.39 348.83 27.18Z" />
				<path id="Path 484" class="mainLogoshp0" d="M379.85 17.41L374.46 17.41L374.46 34L370.99 34L370.99 17.41L365.57 17.41L365.57 14.75L374.46 14.75L379.85 14.75L379.85 17.41Z" />
				<path id="Path 485" class="mainLogoshp0" d="M383.41 14.75L386.87 14.75L386.87 34L383.41 34L383.41 14.75Z" />
				<path id="Path 486" fill-rule="evenodd" class="mainLogoshp0" d="M407.18 22.23L407.18 26.55C407.18 31.03 404.57 34.36 399.26 34.36C394 34.36 391.36 31.03 391.36 26.55L391.36 22.23C391.36 17.69 393.97 14.39 399.26 14.39C404.57 14.39 407.18 17.69 407.18 22.23ZM394.83 22.2L394.83 26.6C394.83 29.63 396.23 31.69 399.26 31.69C402.28 31.69 403.69 29.63 403.69 26.6L403.69 22.2C403.69 19.09 402.26 17.05 399.26 17.05C396.26 17.05 394.83 19.09 394.83 22.2Z" />
				<path id="Path 487" class="mainLogoshp0" d="M426.32 14.75L426.32 34L422.3 34L414.73 19.09L414.73 34L411.68 34L411.68 14.75L415.83 14.75L423.23 29.19L423.23 14.75L426.32 14.75Z" />
				<path id="Path 488" class="mainLogoshp0" d="M438.64 27.18L438.64 21.57C438.64 17.36 441.28 14.39 446.04 14.39C450.55 14.39 452.81 16.97 452.89 20.33L449.62 20.33C449.5 18.24 448.46 17.05 446.04 17.05C443.51 17.05 442.16 18.79 442.16 21.35L442.16 27.4C442.16 29.96 443.51 31.67 445.98 31.67C448.52 31.67 449.56 30.43 449.67 28.36L452.97 28.36C452.7 31.91 450.55 34.36 445.9 34.36C441.39 34.36 438.64 31.39 438.64 27.18Z" />
				<path id="Path 489" class="mainLogoshp0" d="M468.2 31.2L468.2 34L457.03 34L456.92 34L456.92 14.75L460.38 14.75L460.38 31.2L468.2 31.2Z" />
				<path id="Path 490" fill-rule="evenodd" class="mainLogoshp0" d="M486.49 22.23L486.49 26.55C486.49 31.03 483.88 34.36 478.57 34.36C473.31 34.36 470.67 31.03 470.67 26.55L470.67 22.23C470.67 17.69 473.29 14.39 478.57 14.39C483.88 14.39 486.49 17.69 486.49 22.23ZM474.14 22.2L474.14 26.6C474.14 29.63 475.54 31.69 478.57 31.69C481.59 31.69 483 29.63 483 26.6L483 22.2C483 19.09 481.57 17.05 478.57 17.05C475.57 17.05 474.14 19.09 474.14 22.2Z" />
				<path id="Path 491" class="mainLogoshp0" d="M505.42 14.75L505.42 34L502.37 34L502.15 32.22C501.05 33.34 499.37 34.36 496.92 34.36C492.74 34.36 490.62 31.53 490.62 27.79L490.62 14.75L494.11 14.75L494.11 27.92C494.11 30.12 495.08 31.69 497.69 31.69C499.73 31.69 501.05 30.7 501.95 29.52L501.95 14.75L505.42 14.75Z" />
				<path id="Path 492" fill-rule="evenodd" class="mainLogoshp0" d="M524.8 22.45L524.8 25.86C524.8 30.87 521.83 34 516.27 34L510.66 34L510.66 14.75L516.96 14.75C522.19 14.75 524.8 17.83 524.8 22.45ZM521.33 22.37C521.33 19.23 519.85 17.41 516.79 17.41L514.12 17.41L514.12 31.34L516.3 31.34C519.65 31.34 521.33 29.57 521.33 25.92L521.33 22.37Z" />
			</g>
		</g>
	</g>
</svg>