<svg xmlns="http://www.w3.org/2000/svg" viewBox="0 0 49 49" width="49" height="49">
	<defs>
		<clipPath clipPathUnits="userSpaceOnUse" id="mainlogocp1">
			<path d="M-83 -93L1837 -93L1837 987L-83 987Z" />
		</clipPath>
		<clipPath clipPathUnits="userSpaceOnUse" id="mainlogocp2">
			<path d="M0 0L48.79 0L48.79 48.74L0 48.74L0 0Z" />
		</clipPath>
		<clipPath clipPathUnits="userSpaceOnUse" id="mainlogocp3">
			<path d="M-12.19 -12.49L61.04 -12.49L61.04 60.73L-12.19 60.73L-12.19 -12.49Z" />
		</clipPath>
	</defs>
	<style>
		tspan { white-space:pre }
		#Group691 { fill: #FFFFFF } 
		#Group691 path { fill: #FFFFFF} 
		#Group691 path {stroke:#3498CA}
	</style>
	<g id="Web 1920 – 67" clip-path="url(#mainlogocp1)">
		<g id="Group 697">
			<g id="Group 695">
				<g id="Group 694">
					<g id="Group 693" clip-path="url(#mainlogocp2)">
						<g id="Group 692">
							<g id="Group691" clip-path="url(#mainlogocp3)">
								<path id="Path 458" class="shp0" d="M11.3 13.91C11.97 13.87 13.04 13.74 13.69 13.6C15.3 13.28 16.9 12.92 18.5 12.57C20.08 12.22 21.4 11.43 22.37 10.12C23.15 9.07 23.91 8.02 24.71 6.99C25.73 5.65 26.85 4.4 28.22 3.39C29.14 2.7 31.62 1.26 31.8 1.17L31.65 1.11C29.34 0.39 26.9 0 24.36 0C16.97 0 10.35 3.3 5.88 8.49C6.2 8.96 8.43 12.16 9.15 12.97C9.73 13.62 10.44 13.97 11.3 13.91Z" />
								<path id="Path 459" class="shp0" d="M0.69 20.64C1.54 19.21 2.73 18.17 4.29 17.57C4.85 17.35 5.44 17.18 6 16.94C6.91 16.57 7.35 15.76 7.39 14.88C7.41 14.38 7.21 13.93 6.9 13.54C6.36 12.83 5.82 12.13 5.27 11.42C5.07 11.16 4.8 10.86 4.6 10.6C4.48 10.46 4.32 10.56 4.18 10.71C2.05 13.84 0.64 17.49 0.17 21.43L0.48 20.94C0.56 20.82 0.63 20.74 0.69 20.64Z" />
								<path id="Path 460" class="shp0" d="M2.58 32.89C3.19 33.36 3.51 33.38 3.97 32.76C4.21 32.44 4.43 32.1 4.65 31.78C5.5 30.56 6.42 29.41 7.45 28.35C8.19 27.59 8.94 26.84 9.66 26.06C10.72 24.92 11.18 23.57 10.91 22.02C10.72 20.97 10.19 20.14 9.3 19.55C8.34 18.91 7.25 18.85 6.15 19.01C5.23 19.15 4.4 19.56 3.6 20.01C2.79 20.48 2.11 21.11 1.51 21.82C1.15 22.25 0.13 23.45 0 24.98C0.03 26.08 0.12 27.16 0.29 28.23C0.98 31.52 2.58 32.89 2.58 32.89Z" />
								<path id="Path 461" class="shp0" d="M40.44 41.29C39.92 41.08 39.42 40.84 38.89 40.65C38.19 40.39 37.48 40.41 36.79 40.72C36.23 40.96 35.73 41.29 35.24 41.65L34.43 42.24C30.72 44.82 26.29 46.27 21.55 46.16C13.54 45.97 6.71 41.4 2.81 34.59L2.15 33.5C2 33.25 1.76 33.36 1.94 33.95C5.66 42.65 14.3 48.74 24.36 48.74C24.78 48.74 25.19 48.73 25.6 48.71C25.63 48.71 25.65 48.71 25.67 48.71C26.03 48.69 26.38 48.66 26.72 48.63C26.96 48.6 27.2 48.57 27.43 48.54C27.56 48.53 27.69 48.51 27.82 48.49C28.15 48.45 28.47 48.39 28.8 48.33C28.83 48.33 28.87 48.32 28.9 48.31C30.75 47.96 32.53 47.4 34.21 46.66L34.26 46.64C34.57 46.51 34.87 46.36 35.16 46.22C35.28 46.16 35.39 46.1 35.5 46.04C35.7 45.94 35.89 45.84 36.09 45.74C36.39 45.57 36.69 45.39 36.99 45.21C38.44 44.33 39.78 43.31 41.01 42.16C41.14 41.93 41.11 41.63 40.44 41.29Z" />
								<path id="Path 462" class="shp0" d="M32.15 2.95C31 3.63 30.04 4.43 29.15 5.31C28.61 5.84 28.08 6.39 27.59 6.97C27.08 7.58 26.6 8.2 26.14 8.85C25.79 9.36 25.57 9.93 25.58 10.58C25.59 11.4 26.07 11.89 26.9 11.89C27.47 11.89 28.01 11.73 28.56 11.61C29.62 11.38 30.67 11.11 31.74 10.93C32.6 10.79 33.47 10.71 34.35 10.67C35.49 10.6 36.63 10.64 37.76 10.82C38.52 10.94 39.28 11.1 40.03 11.3C41.02 11.56 41.97 11.96 42.86 12.48C43.68 12.96 44.44 13.53 45.18 14.11C45.31 14.22 45.57 14.43 45.71 14.51C45.83 14.58 46.17 14.42 46.21 14.3C46.34 13.95 46.24 13.62 46.08 13.32L45.97 13.09C45.84 12.83 45.69 12.57 45.55 12.31C45.51 12.25 45.48 12.19 45.45 12.14C43.98 9.62 41.87 7.23 39.61 5.36C38.07 4.13 36.39 3.08 34.58 2.24C34 2.09 33.18 2.35 32.15 2.95Z" />
								<path id="Path 463" class="shp0" d="M43.25 25.98C44.06 24.17 44.81 22.33 45.59 20.51C45.82 19.94 46.01 19.36 46.06 18.75C46.13 17.81 45.81 16.97 45.21 16.25C44.62 15.54 43.88 15 43.06 14.58C41.44 13.76 39.7 13.36 37.91 13.17C37.2 13.09 36.47 13.1 35.75 13.09C35.24 13.08 34.73 13.09 34.22 13.12C33.36 13.17 32.51 13.21 31.66 13.31C30.76 13.43 29.86 13.58 28.97 13.76C27.47 14.07 26.07 14.64 24.79 15.47C23.93 16.03 23.19 16.72 22.45 17.42C21.86 17.99 21.26 18.57 20.67 19.15C20.04 19.77 19.41 20.4 18.98 21.19C18.51 22.05 18.35 22.97 18.53 23.94C18.69 24.83 19.11 25.58 19.7 26.22C20.35 26.92 21.03 27.59 21.72 28.25C22.81 29.28 23.99 30.2 25.23 31.05C26.9 32.2 28.66 33.19 30.5 34.01C31.56 34.49 32.64 34.93 33.73 35.35C34.45 35.63 35.2 35.83 35.99 35.83C36.17 35.82 36.35 35.83 36.52 35.8C37.22 35.69 37.78 35.34 38.27 34.85C38.99 34.13 39.52 33.28 40.03 32.41C41.23 30.33 42.28 28.17 43.25 25.98Z" />
								<path id="Path 464" class="shp0" d="M33.31 38.27C33.11 38.14 32.89 38.02 32.67 37.92C31.19 37.25 29.69 36.6 28.22 35.91C26.53 35.12 24.92 34.21 23.39 33.15C21.74 32 20.21 30.72 18.68 29.43C17.98 28.83 17.27 28.22 16.47 27.74C15.92 27.42 15.33 27.18 14.68 27.16C13.93 27.13 13.26 27.37 12.64 27.76C11.55 28.43 10.58 29.26 9.64 30.13C9.08 30.65 8.53 31.19 8.03 31.77C7.44 32.47 6.89 33.2 6.35 33.93C5.77 34.73 5.71 35.61 6.05 36.51C6.51 37.82 8 39.32 8 39.32C11.44 42.83 16.08 45 21.16 45.12C24.74 45.2 29.91 43.84 32.75 41.33C33.24 40.87 33.65 40.33 33.83 39.66C34.01 39.06 33.85 38.61 33.31 38.27Z" />
								<path id="Path 465" class="shp0" d="M16.06 21.05C17.23 20.62 18.72 19.55 19.88 17.34C21.72 13.81 18.97 14.16 18.24 14.29C17.4 14.43 16.77 14.52 14.95 15.04C13.22 15.54 12.59 16.55 12.4 17.25C12.15 18.17 12.36 19.38 12.75 20.09C13.63 21.67 14.95 21.47 16.06 21.05Z" />
								<path id="Path 466" class="shp0" d="M48.73 23.56C48.6 20.68 47.99 20.71 47.88 20.66C47.75 20.61 47.35 20.69 46.98 21.65C46.51 22.76 46.16 23.62 45.68 24.72C45 26.28 44.33 27.85 43.59 29.39C42.73 31.17 41.79 32.93 40.91 34.71C40.52 35.49 40.21 36.3 40.05 37.16C39.89 37.97 40.06 38.41 40.82 38.77C41.33 39.01 41.98 39.37 42.49 39.62C43.03 39.79 43.47 39.45 43.65 39.27C43.71 39.21 43.74 39.16 43.74 39.16C46.94 35.04 48.79 29.64 48.75 24.41C48.75 24.38 48.75 24.35 48.75 24.32C48.75 24.07 48.74 23.81 48.73 23.56Z" />
							</g>
						</g>
					</g>
				</g>
			</g>
		</g>
	</g>
</svg>