<?xml version="1.0" encoding="iso-8859-1"?>
<!-- Generator: Adobe Illustrator 19.0.0, SVG Export Plug-In . SVG Version: 6.00 Build 0)  -->
<svg version="1.1" id="Layer_1" xmlns="http://www.w3.org/2000/svg" xmlns:xlink="http://www.w3.org/1999/xlink" x="0px" y="0px"
	 viewBox="0 0 330 330" style="enable-background:new 0 0 330 330;" xml:space="preserve">
<path id="XMLID_22_" d="M270,214.996V75.005c0-0.003,0-0.007,0-0.01V15c0-8.284-6.716-15-15-15H75c-8.284,0-15,6.716-15,15v99.995
	c0,0.003,0,0.007,0,0.01v139.99c0,0.003,0,0.007,0,0.01V315c0,8.284,6.716,15,15,15h180c8.284,0,15-6.716,15-15v-99.994
	C270,215.003,270,214.999,270,214.996z M145,163.787l-55-55V90h128.787L145,163.787z M123.787,185L90,218.787v-67.574L123.787,185z
	 M185,166.213l55,55.001V240H111.213L185,166.213z M206.213,145L240,111.213v67.574L206.213,145z M240,30v30H90V30H240z M90,300v-30
	h150v30H90z"/>
<g>
</g>
<g>
</g>
<g>
</g>
<g>
</g>
<g>
</g>
<g>
</g>
<g>
</g>
<g>
</g>
<g>
</g>
<g>
</g>
<g>
</g>
<g>
</g>
<g>
</g>
<g>
</g>
<g>
</g>
</svg>
