<svg xmlns="http://www.w3.org/2000/svg" viewBox="0 0 57 57" width="57" height="57">
	<defs>
		<clipPath clipPathUnits="userSpaceOnUse" id="cp1">
			<path d="M-1770 -615L150 -615L150 465L-1770 465Z" />
		</clipPath>
		<linearGradient id="grd1" gradientUnits="userSpaceOnUse"  x1="28.999" y1="50.995" x2="28.999" y2="7.058">
			<stop offset="0" stop-color="#0696d7"  />
			<stop offset="1" stop-color="#38abdf"  />
		</linearGradient>
		<linearGradient id="grd2" gradientUnits="userSpaceOnUse"  x1="28.999" y1="50.995" x2="28.999" y2="7.058">
			<stop offset="0" stop-color="#0696d7"  />
			<stop offset="1" stop-color="#38abdf"  />
		</linearGradient>
		<linearGradient id="grd3" gradientUnits="userSpaceOnUse"  x1="28.999" y1="50.995" x2="28.999" y2="7.058">
			<stop offset="0" stop-color="#0696d7"  />
			<stop offset="1" stop-color="#38abdf"  />
		</linearGradient>
	</defs>
	<style>
		tspan { white-space:pre }
		.shp0 { fill: url(#grd1);stroke: #ffffff;paint-order:stroke fill markers;stroke-width: 2 } 
		.shp1 { fill: url(#grd2);stroke: #ffffff;paint-order:stroke fill markers;stroke-width: 2 } 
		.hover { fill: url(#grd3);stroke: #ffffff;paint-order:stroke fill markers;stroke-width: 2 } 
		.shp3 { fill: #ffffff } 
	</style>
	<g id="Web 1920 – 60" clip-path="url(#cp1)">
		<g id="Group 189">
			<g id="Group 184">
				<path id="Ellipse 29" class="shp0" d="M29 50.99C16.83 50.99 7 41.16 7 28.99C7 16.83 16.83 6.99 29 6.99C41.17 6.99 51 16.83 51 28.99C51 41.16 41.17 50.99 29 50.99Z" />
				<path id="Ellipse 30" class="shp1" d="M29 50.99C16.83 50.99 7 41.16 7 28.99C7 16.83 16.83 6.99 29 6.99C41.17 6.99 51 16.83 51 28.99C51 41.16 41.17 50.99 29 50.99Z" />
				<path id="Ellipse 31" class="hover" d="M29 50.99C16.83 50.99 7 41.16 7 28.99C7 16.83 16.83 6.99 29 6.99C41.17 6.99 51 16.83 51 28.99C51 41.16 41.17 50.99 29 50.99Z" />
				<path id="Path 95" fill-rule="evenodd" class="shp3" d="M44.6 34.48C44.75 35.77 43.42 36.88 41.47 37.01C39.53 37.14 37.72 36.24 37.27 34.97L34.94 28.75C32.89 28.42 30.79 28.17 29.13 28.17C27.4 28.17 25.17 28.45 23.05 28.8L20.73 34.97C20.28 36.24 18.47 37.14 16.53 37.01C14.58 36.88 13.25 35.77 13.4 34.48C13.4 34.48 14.77 20.54 14.78 20.52C15.26 18.47 18.14 16.97 21.2 17.17C23.57 17.33 25.34 18.47 25.8 19.92C27.01 20.02 28.16 20.09 29.13 20.09C30.03 20.09 31.08 20.03 32.19 19.94C32.64 18.48 34.42 17.33 36.8 17.17C39.86 16.97 42.74 18.47 43.22 20.52C43.23 20.54 44.6 34.48 44.6 34.48ZM24.34 23.16C24.34 22.38 23.7 21.74 22.92 21.74C22.14 21.74 21.5 21.1 21.5 20.32C21.5 19.54 20.86 18.9 20.08 18.9C19.3 18.9 18.66 19.54 18.66 20.32C18.66 21.1 18.03 21.74 17.25 21.74C16.46 21.74 15.83 22.38 15.83 23.16C15.83 23.94 16.46 24.58 17.25 24.58C18.03 24.58 18.66 25.22 18.66 26C18.66 26.78 19.3 27.42 20.08 27.42C20.86 27.42 21.5 26.78 21.5 26C21.5 25.22 22.14 24.58 22.92 24.58C23.7 24.58 24.34 23.94 24.34 23.16ZM36.33 23.16C36.33 22.38 35.7 21.74 34.91 21.74C34.13 21.74 33.49 22.38 33.49 23.16C33.49 23.94 34.13 24.58 34.91 24.58C35.7 24.58 36.33 23.94 36.33 23.16ZM39.17 26C39.17 25.21 38.53 24.58 37.75 24.58C36.97 24.58 36.33 25.21 36.33 26C36.33 26.78 36.97 27.42 37.75 27.42C38.53 27.42 39.17 26.78 39.17 26ZM39.17 20.32C39.17 19.54 38.53 18.9 37.75 18.9C36.97 18.9 36.33 19.54 36.33 20.32C36.33 21.1 36.97 21.74 37.75 21.74C38.53 21.74 39.17 21.1 39.17 20.32ZM42.01 23.16C42.01 22.38 41.37 21.74 40.59 21.74C39.81 21.74 39.17 22.38 39.17 23.16C39.17 23.94 39.81 24.58 40.59 24.58C41.37 24.58 42.01 23.94 42.01 23.16Z" />
			</g>
		</g>
	</g>
</svg>