<svg width="150" height="150" viewBox="0 0 150 150" fill="none" xmlns="http://www.w3.org/2000/svg">
<path d="M93.3 104.7H15.6V90.4501H20.1V100.2H93.3V104.7Z" fill="#2299D5"/>
<path d="M126.3 73.05H121.8V48.75H111.6V44.25H126.3V73.05Z" fill="#2299D5"/>
<path d="M85.35 94.05H4.80002V33.6H115.5V63.9H111V38.1H9.30002V89.55H85.35V94.05Z" fill="#2299D5"/>
<path d="M30.15 91.5H25.65C25.65 81.3 17.4 73.05 7.20001 73.05V68.55C19.8 68.55 30.15 78.9 30.15 91.5Z" fill="#2299D5"/>
<path d="M7.05002 58.05V53.55C17.25 53.55 25.5 45.3 25.5 35.1H30C30.15 47.7 19.8 58.05 7.05002 58.05Z" fill="#2299D5"/>
<path d="M113.25 58.05C100.65 58.05 90.3 47.7 90.3 35.1H94.8C94.8 45.3 103.05 53.55 113.25 53.55V58.05Z" fill="#2299D5"/>
<path d="M60.75 83.7C49.95 83.7 41.25 75 41.25 64.2C41.25 53.4 49.95 44.7 60.75 44.7C71.55 44.7 80.25 53.4 80.25 64.2C80.25 75 71.4 83.7 60.75 83.7ZM60.75 49.05C52.5 49.05 45.75 55.8 45.75 64.05C45.75 72.3 52.5 79.05 60.75 79.05C69 79.05 75.75 72.3 75.75 64.05C75.75 55.8 69 49.05 60.75 49.05Z" fill="#2299D5"/>
<path d="M113.25 123.15C112.2 123.15 111 123 109.8 122.85L108.45 122.7L105.6 114.75C104.7 114.45 103.8 114 102.9 113.7L95.1 117.45L94.05 116.55C92.25 115.2 90.75 113.55 89.25 111.75L88.35 110.7L92.1 102.9C91.65 102 91.35 101.1 91.05 100.2L83.1 97.3499L82.95 95.9999C82.8 94.7999 82.65 93.5999 82.65 92.5499C82.65 91.4999 82.8 90.2999 82.95 89.0999L83.1 87.7499L91.05 84.8999C91.35 83.9999 91.8 83.0999 92.1 82.1999L88.35 74.3999L89.25 73.3499C90.6 71.5499 92.25 70.0499 94.05 68.5499L95.1 67.6499L102.9 71.3999C103.8 70.9499 104.7 70.6499 105.6 70.3499L108.45 62.3999L109.8 62.2499C112.2 61.9499 114.15 61.9499 116.55 62.2499L117.9 62.3999L120.75 70.3499C121.65 70.6499 122.55 71.0999 123.45 71.3999L131.25 67.6499L132.3 68.5499C134.1 69.8999 135.6 71.5499 137.1 73.3499L138 74.3999L134.25 82.1999C134.7 83.0999 135 83.9999 135.3 84.8999L143.25 87.7499L143.4 89.0999C143.55 90.2999 143.7 91.4999 143.7 92.5499C143.7 93.5999 143.55 94.7999 143.4 95.9999L143.25 97.3499L135.3 100.2C135 101.1 134.55 102 134.25 102.9L138 110.7L137.1 111.75C135.6 113.55 134.1 115.05 132.3 116.55L131.25 117.45L123.45 113.7C122.55 114.15 121.65 114.45 120.75 114.75L117.9 122.7L116.7 123C115.5 123.15 114.3 123.15 113.25 123.15ZM111.75 118.65C112.8 118.8 113.7 118.8 114.75 118.65L117.45 111.15L118.5 110.85C119.85 110.4 121.2 109.95 122.55 109.2L123.6 108.6L130.8 112.05C131.55 111.45 132.3 110.7 132.9 109.95L129.45 102.75L130.05 101.7C130.65 100.5 131.25 99.1499 131.7 97.6499L132 96.5999L139.5 93.8999C139.5 93.4499 139.5 92.8499 139.5 92.3999C139.5 91.9499 139.5 91.4999 139.5 90.8999L132 88.1999L131.7 87.1499C131.25 85.7999 130.8 84.4499 130.05 83.0999L129.45 82.0499L132.9 74.8499C132.15 74.0999 131.55 73.3499 130.8 72.7499L123.6 76.1999L122.55 75.5999C121.35 74.9999 120 74.3999 118.5 73.9499L117.45 73.6499L114.75 66.1499C113.7 65.9999 112.8 65.9999 111.75 66.1499L109.05 73.6499L108 74.2499C106.65 74.6999 105.3 75.1499 103.95 75.8999L102.9 76.4999L95.7 73.0499C94.95 73.7999 94.2 74.3999 93.6 75.1499L97.05 82.3499L96.45 83.3999C95.85 84.5999 95.25 85.9499 94.8 87.4499L94.5 88.4999L87 91.1999C87 91.6499 87 92.2499 87 92.6999C87 93.1499 87 93.5999 87 94.1999L94.5 96.8999L94.8 97.9499C95.25 99.2999 95.7 100.65 96.45 102L96.9 103.05L93.45 110.25C94.2 111 94.8 111.75 95.55 112.35L102.75 108.9L103.8 109.35C105 109.95 106.35 110.55 107.85 111L108.9 111.3L111.75 118.65ZM113.25 101.85C110.7 101.85 108.45 100.95 106.65 99.1499C104.85 97.3499 103.95 95.0999 103.95 92.5499C103.95 89.9999 104.85 87.7499 106.65 85.9499C108.45 84.1499 110.7 83.2499 113.25 83.2499C115.8 83.2499 118.05 84.1499 119.85 85.9499C121.65 87.7499 122.55 89.9999 122.55 92.5499C122.55 95.0999 121.65 97.3499 119.85 99.1499C118.05 100.95 115.8 101.85 113.25 101.85ZM109.95 89.0999C108.9 90.1499 108.45 91.1999 108.45 92.5499C108.45 93.8999 108.9 94.9499 109.95 95.9999C111 97.0499 112.05 97.4999 113.4 97.4999C114.75 97.4999 115.8 97.0499 116.85 95.9999C117.9 94.9499 118.35 93.8999 118.35 92.5499C118.35 91.1999 117.9 90.1499 116.85 89.0999C115.8 88.0499 114.75 87.5999 113.4 87.5999C112.05 87.5999 110.85 88.0499 109.95 89.0999Z" fill="#215BA7"/>
</svg>
