<svg width="150" height="150" viewBox="0 0 150 150" fill="none" xmlns="http://www.w3.org/2000/svg">
<path d="M99.75 71.55H95.25V34.8H77.4V30.3H99.75V71.55Z" fill="#2299D5"/>
<path d="M77.1 121.95H25.05V30.3H48.75V34.8H29.55V117.45H77.1V121.95Z" fill="#2299D5"/>
<path d="M79.65 48.7501H46.5V30.3001H51.9C52.5 24.9001 57.15 20.7001 62.85 20.7001C68.55 20.7001 73.05 24.9001 73.8 30.3001H79.8V48.7501H79.65ZM51 44.2501H75.15V34.6501H68.85L69.15 31.8001C69.15 31.6501 69.15 31.5001 69.15 31.3501C69.15 27.7501 66.3 24.9001 62.7 24.9001C59.1 24.9001 56.25 27.7501 56.25 31.3501C56.25 31.5001 56.25 31.6501 56.25 31.8001L56.55 34.6501H51V44.2501Z" fill="#2299D5"/>
<path d="M50.25 79.3501H38.55V91.0501H50.25V79.3501Z" fill="#2299D5"/>
<path d="M50.25 60H38.55V71.7H50.25V60Z" fill="#2299D5"/>
<path d="M50.25 98.7001H38.55V110.4H50.25V98.7001Z" fill="#2299D5"/>
<path d="M87.9 63.6001H58.05V68.1001H87.9V63.6001Z" fill="#2299D5"/>
<path d="M78.6 82.9501H58.05V87.4501H78.6V82.9501Z" fill="#2299D5"/>
<path d="M72 102.3H58.05V106.8H72V102.3Z" fill="#2299D5"/>
<path d="M98.7 131.4C97.65 131.4 96.45 131.25 95.25 131.1L93.9 130.95L91.05 123C90.15 122.7 89.25 122.25 88.35 121.95L80.55 125.7L79.5 124.65C77.7 123.3 76.2 121.65 74.7 119.85L73.8 118.8L77.55 111C77.1 110.1 76.8 109.2 76.5 108.3L68.55 105.45L68.4 104.1C68.25 102.9 68.1 101.7 68.1 100.65C68.1 99.6 68.25 98.4 68.4 97.2L68.55 95.85L76.5 93C76.8 92.1 77.25 91.2 77.55 90.3L73.8 82.5L74.7 81.45C76.05 79.65 77.7 78.15 79.5 76.65L80.55 75.75L88.35 79.5C89.25 79.05 90.15 78.75 91.05 78.45L93.9 70.5L95.25 70.35C97.65 70.05 99.6 70.05 102 70.35L103.35 70.5L106.2 78.45C107.1 78.75 108 79.2 108.9 79.5L116.7 75.75L117.75 76.65C119.55 78 121.05 79.65 122.55 81.45L123.45 82.5L119.7 90.3C120.15 91.2 120.45 92.1 120.75 93L128.7 95.85L128.85 97.2C129 98.4 129.15 99.6 129.15 100.65C129.15 101.7 129 102.9 128.85 104.1L129 105.45L121.05 108.3C120.75 109.2 120.3 110.1 120 111L123.75 118.8L122.85 119.85C121.35 121.65 119.85 123.15 118.05 124.65L117 125.55L109.2 121.8C108.3 122.25 107.4 122.55 106.5 122.85L103.5 130.95L102.15 131.1C100.95 131.25 99.75 131.4 98.7 131.4ZM97.2 126.75C98.25 126.9 99.15 126.9 100.2 126.75L102.9 119.25L103.95 118.95C105.3 118.5 106.65 118.05 108 117.3L109.05 116.7L116.25 120.15C117 119.55 117.75 118.8 118.35 118.05L114.9 111L115.5 109.95C116.1 108.75 116.7 107.4 117.15 105.9L117.45 104.85L124.95 102.15C124.95 101.7 124.95 101.1 124.95 100.65C124.95 100.2 124.95 99.75 124.95 99.15L117.45 96.45L117 95.4C116.55 94.05 116.1 92.7 115.35 91.35L114.75 90.3L118.2 83.1C117.45 82.35 116.85 81.6 116.1 81L108.9 84.45L108 84C106.8 83.4 105.45 82.8 103.95 82.35L102.9 82.05L100.2 74.55C99.15 74.4 98.25 74.4 97.2 74.55L94.5 82.05L93.45 82.35C92.1 82.8 90.75 83.25 89.4 84L88.35 84.6L81.15 81.15C80.4 81.9 79.65 82.5 79.05 83.25L82.5 90.45L81.9 91.5C81.3 92.7 80.7 94.05 80.25 95.55L79.95 96.6L72.45 99.3C72.45 99.75 72.45 100.35 72.45 100.8C72.45 101.25 72.45 101.7 72.45 102.3L79.95 105L80.25 106.05C80.7 107.4 81.15 108.75 81.9 110.1L82.5 111L79.05 118.2C79.8 118.95 80.4 119.7 81.15 120.3L88.35 116.85L89.4 117.3C90.6 117.9 91.95 118.5 93.45 118.95L94.5 119.25L97.2 126.75ZM98.7 109.95C96.15 109.95 93.9 109.05 92.1 107.25C90.3 105.45 89.4 103.2 89.4 100.65C89.4 98.1 90.3 95.85 92.1 94.05C93.9 92.25 96.15 91.35 98.7 91.35C101.25 91.35 103.5 92.25 105.3 94.05C107.1 95.85 108 98.1 108 100.65C108 103.2 107.1 105.45 105.3 107.25C103.5 109.05 101.25 109.95 98.7 109.95ZM95.25 97.2C94.2 98.25 93.75 99.3 93.75 100.65C93.75 102 94.2 103.05 95.25 104.1C96.3 105.15 97.35 105.6 98.7 105.6C100.05 105.6 101.1 105.15 102.15 104.1C103.2 103.05 103.65 102 103.65 100.65C103.65 99.3 103.2 98.25 102.15 97.2C101.1 96.15 100.05 95.7 98.7 95.7C97.35 95.7 96.3 96.3 95.25 97.2Z" fill="#1D5AA7"/>
</svg>
