<svg width="150" height="150" viewBox="0 0 150 150" fill="none" xmlns="http://www.w3.org/2000/svg">
<path d="M113.153 60.8241H32.5835V46.2027L38.6757 44.2227C40.1988 26.5552 54.8202 13 72.7923 13C90.6121 13 105.386 26.5552 106.909 44.2227L113.153 46.2027V60.8241ZM37.1527 56.2549H108.584V49.5535L102.492 47.7258V46.0504C101.883 30.0583 88.7844 17.5692 72.9446 17.5692C56.9525 17.5692 44.0065 30.0583 43.3972 46.0504V47.7258L37.4573 49.5535V56.2549H37.1527Z" fill="#2299D5"/>
<path d="M65.0247 16.96H60.4555V34.4752H65.0247V16.96Z" fill="#2299D5"/>
<path d="M75.0769 16.96H70.5077V34.4752H75.0769V16.96Z" fill="#2299D5"/>
<path d="M85.1291 16.96H80.5599V34.4752H85.1291V16.96Z" fill="#2299D5"/>
<path d="M94.4198 43.1566H51.1649V47.7258H94.4198V43.1566Z" fill="#1D5AA7"/>
<path d="M45.5295 104.079L30.7558 80.776C29.9943 79.4053 29.6896 77.8822 29.9943 76.3592C30.2989 74.8361 31.2127 73.6177 32.5835 72.7038C33.9542 71.9423 35.4773 71.6377 37.0003 71.9423C38.5234 72.2469 39.7418 73.1607 40.6557 74.5315L55.4294 97.8343L51.6217 100.271L36.5434 77.1207C36.3911 76.8161 36.0865 76.6638 35.7819 76.6638C35.4773 76.6638 35.1727 76.6638 34.8681 76.8161C34.5634 76.9684 34.4111 77.273 34.4111 77.5776C34.4111 77.8822 34.4111 78.1868 34.5634 78.4914L49.3371 101.794L45.5295 104.079Z" fill="#2299D5"/>
<path d="M39.5896 107.887L22.0744 80.3193C20.399 77.5778 21.1606 74.0747 23.9021 72.3994C25.2728 71.6378 26.7959 71.3332 28.3189 71.6378C29.842 71.9425 31.0604 72.8563 31.9743 74.2271L49.4895 101.794L45.6818 104.231L28.0143 76.5116C27.862 76.207 27.5574 76.0547 27.2528 76.0547C26.9482 76.0547 26.6436 76.0547 26.339 76.207C25.7297 76.5116 25.5774 77.2732 26.0343 77.8824L43.5495 105.45L39.5896 107.887Z" fill="#2299D5"/>
<path d="M56.3432 142.612L53.1448 141.851L47.8141 133.474L32.4312 126.011L21.6174 117.482C20.0944 116.416 19.1805 114.588 19.0282 112.76C18.8759 111.085 19.3328 109.562 20.5513 108.344C22.9882 105.754 26.6435 105.45 29.842 107.734L32.4312 109.562L20.2467 90.3714C19.4852 89.0007 19.1805 87.4776 19.4852 85.9546C19.7898 84.4315 20.7036 83.213 22.0744 82.2992C23.4451 81.5377 24.9682 81.2331 26.4912 81.5377C28.0143 81.8423 29.2327 82.7561 30.1466 84.1269L43.8541 105.602L40.0465 108.039L26.3389 86.5638C26.1866 86.2592 25.882 86.1069 25.5774 86.1069C25.2728 86.1069 24.9682 86.1069 24.6636 86.2592C24.3589 86.4115 24.2066 86.7161 24.2066 87.0207C24.2066 87.3253 24.2066 87.6299 24.3589 87.9345L42.788 116.72L39.5896 119.766L27.7097 111.542C26.7958 110.933 25.4251 110.324 24.5113 111.542C24.2066 111.847 24.2066 112.151 24.2066 112.456C24.2066 113.065 24.6636 113.674 25.1205 113.979L35.7819 122.356L51.1648 129.666L52.0787 130.428L56.6478 137.434L76.143 124.945L47.0526 79.2531C46.7479 78.6439 45.9864 78.4916 45.3772 78.9485C44.768 79.2531 44.6157 80.0146 45.0726 80.6238L56.0386 97.8344L52.231 100.271L41.2649 83.0607C39.5896 80.3192 40.3511 76.8162 43.0926 75.1408C45.8341 73.4655 49.3371 74.227 51.0125 76.9685L81.3214 124.64L80.5599 127.839L56.3432 142.612Z" fill="#2299D5"/>
<path d="M73.0112 117.086L49.6268 131.972L52.0805 135.826L75.4648 120.941L73.0112 117.086Z" fill="#2299D5"/>
<path d="M108.737 129.209C107.67 129.209 106.452 129.057 105.234 128.905L103.863 128.753L100.969 120.68C100.055 120.376 99.1413 119.919 98.2274 119.614L90.3075 123.422L89.2414 122.508C87.4137 121.137 85.8906 119.462 84.3676 117.634L83.4537 116.416L87.2614 108.496C86.8045 107.582 86.4999 106.668 86.1952 105.754L78.123 102.861L77.9707 101.49C77.8184 100.271 77.6661 99.0529 77.6661 97.9867C77.6661 96.9206 77.8184 95.7021 77.9707 94.4837L78.123 93.1129L86.1952 90.2191C86.4999 89.3053 86.9568 88.3914 87.2614 87.4776L83.4537 79.5577L84.3676 78.4915C85.7383 76.6639 87.4137 75.1408 89.2414 73.6177L90.3075 72.7039L98.2274 76.5116C99.1413 76.0546 100.055 75.75 100.969 75.4454L103.863 67.3732L105.234 67.2209C107.67 66.9163 109.65 66.9163 112.087 67.2209L113.458 67.3732L116.352 75.4454C117.266 75.75 118.18 76.2069 119.093 76.5116L127.013 72.7039L128.079 73.6177C129.907 74.9885 131.43 76.6639 132.953 78.4915L133.867 79.5577L130.059 87.4776C130.516 88.3914 130.821 89.3053 131.126 90.2191L139.198 93.1129L139.35 94.4837C139.502 95.7021 139.655 96.9206 139.655 97.9867C139.655 99.0529 139.502 100.271 139.35 101.49L139.198 102.861L131.126 105.754C130.821 106.668 130.364 107.582 130.059 108.496L134.019 116.416L133.106 117.482C131.582 119.31 130.059 120.833 128.232 122.356L127.166 123.27L119.246 119.462C118.332 119.919 117.418 120.223 116.504 120.528L113.61 128.6L112.24 128.753C111.021 129.209 109.803 129.209 108.737 129.209ZM107.213 124.64C108.28 124.793 109.193 124.793 110.26 124.64L113.001 117.025L114.067 116.72C115.438 116.263 116.809 115.807 118.18 115.045L119.246 114.436L126.404 117.939C127.166 117.33 127.927 116.568 128.536 115.807L125.033 108.496L125.643 107.43C126.252 106.211 126.861 104.84 127.318 103.317L127.623 102.251L135.238 99.5098C135.238 99.0529 135.238 98.4436 135.238 97.9867C135.238 97.5298 135.238 97.0729 135.238 96.4637L127.623 93.7221L127.318 92.656C126.861 91.2852 126.404 89.9145 125.643 88.5437L125.033 87.4776L128.536 80.1669C127.775 79.4054 127.166 78.6438 126.404 78.0346L119.093 81.5377L118.027 80.9284C116.809 80.3192 115.438 79.71 113.915 79.2531L112.849 78.9485L110.107 71.3332C109.041 71.1808 108.127 71.1808 107.061 71.3332L104.32 78.9485L103.254 79.2531C101.883 79.71 100.512 80.1669 99.1413 80.9284L98.0751 81.5377L90.7644 78.0346C90.0029 78.7961 89.2414 79.4054 88.6321 80.1669L92.1352 87.4776L91.526 88.5437C90.9167 89.7622 90.3075 91.1329 89.8506 92.656V93.8745L82.2353 96.616C82.2353 97.0729 82.2353 97.6821 82.2353 98.139C82.2353 98.5959 82.2353 99.0529 82.2353 99.6621L89.8506 102.404L90.1552 103.47C90.6121 104.84 91.069 106.211 91.8306 107.582L92.2875 108.648L88.7844 115.959C89.546 116.72 90.1552 117.482 90.9167 118.091L98.2274 114.588L99.2936 115.045C100.512 115.654 101.883 116.263 103.406 116.72L104.472 117.025L107.213 124.64ZM108.737 107.582C106.147 107.582 103.863 106.668 102.035 104.84C100.207 103.013 99.2936 100.728 99.2936 98.139C99.2936 95.5498 100.207 93.2652 102.035 91.4375C103.863 89.6099 106.147 88.696 108.737 88.696C111.326 88.696 113.61 89.6099 115.438 91.4375C117.266 93.2652 118.18 95.5498 118.18 98.139C118.18 100.728 117.266 103.013 115.438 104.84C113.61 106.668 111.326 107.582 108.737 107.582ZM105.234 94.636C104.167 95.7021 103.71 96.7683 103.71 98.139C103.71 99.5098 104.167 100.576 105.234 101.642C106.3 102.708 107.366 103.165 108.737 103.165C110.107 103.165 111.173 102.708 112.24 101.642C113.306 100.576 113.763 99.5098 113.763 98.139C113.763 96.7683 113.306 95.7021 112.24 94.636C111.173 93.5698 110.107 93.1129 108.737 93.1129C107.366 93.1129 106.3 93.5698 105.234 94.636Z" fill="#215BA7"/>
</svg>
