<svg width="150" height="150" viewBox="0 0 150 150" fill="none" xmlns="http://www.w3.org/2000/svg">
<path d="M108.763 94.8547H104.194V21.2909H92.4665V92.5701H87.8973V16.7217H108.763V94.8547Z" fill="#2299D5"/>
<path d="M63.5284 116.177H54.2377V43.5275H75.256V102.318H70.6868V48.0966H58.8069V111.608H63.5284V116.177Z" fill="#2299D5"/>
<path d="M44.4902 116.177H23.4719V73.0748H44.3379V116.177H44.4902ZM28.0411 111.608H39.7687V77.644H28.0411V111.608Z" fill="#2299D5"/>
<path d="M95.9696 137.501C77.3883 137.501 62.31 116.178 61.7008 115.264L60.7869 113.893L61.7008 112.675C62.31 111.761 76.7791 90.2856 95.9696 90.2856C115.16 90.2856 129.629 111.761 130.238 112.675L131 113.893L130.086 115.112C129.477 116.025 114.399 137.501 95.9696 137.501ZM66.4222 113.893C69.9253 118.31 82.2621 132.931 95.9696 132.931C109.677 132.931 122.014 118.31 125.365 113.893C122.014 109.324 110.134 94.8548 95.9696 94.8548C81.6529 94.8548 69.773 109.324 66.4222 113.893Z" fill="#1D5AA7"/>
<path d="M95.9696 125.621C89.4205 125.621 84.2421 120.29 84.2421 113.893C84.2421 107.496 89.5728 102.166 95.9696 102.166C102.366 102.166 107.697 107.496 107.697 113.893C107.697 120.29 102.366 125.621 95.9696 125.621ZM95.9696 106.735C92.0097 106.735 88.8112 109.933 88.8112 113.893C88.8112 117.853 92.0097 121.051 95.9696 121.051C99.9296 121.051 103.128 117.853 103.128 113.893C103.128 109.933 99.9296 106.735 95.9696 106.735Z" fill="#2299D5"/>
<path d="M24.0811 51.752L57.4361 19.7677L60.6346 23.1184L24.0811 57.5396" fill="#1D5AA7"/>
<path d="M58.9592 32.4091L59.1115 21.4431H48.1454V16.8739H63.6807L63.5284 32.4091H58.9592Z" fill="#1D5AA7"/>
</svg>
