<svg width="150" height="150" viewBox="0 0 150 150" fill="none" xmlns="http://www.w3.org/2000/svg">
<path d="M75.3 136.3L38 117.65C38 117.65 38 117.333 38 115.15C38 112.967 38 112.65 38 112.65L75.3 94L112.5 112.6V115V117.7L75.3 136.3ZM43.05 115.15L75.3 131.35L107.55 115.15L75.3 98.95L43.05 115.15Z" fill="#2299D5"/>
<path d="M75.15 69.7499L38 51.1093V48.4499V45.7905L75.15 27.1499L112.5 46V48V51L75.15 69.7499ZM42.75 48.4499L75.15 64.6499L107.55 48.4499L75.15 32.2499L42.75 48.4499Z" fill="#2299D5"/>
<path d="M42.5 48.4498H38V114.75H42.5V48.4498Z" fill="#2299D5"/>
<path d="M112.5 48.4498H108V114.75H112.5V48.4498Z" fill="#2299D5"/>
<path d="M77.4 67.1998H72.9V133.5H77.4V67.1998Z" fill="#2299D5"/>
<path d="M33.95 129.6H22.7V30.8999H33.95V35.3999H27.2V125.1H33.95V129.6Z" fill="#1D5AA7"/>
<path d="M129.9 53.8499L124.95 51.2999L132.75 47.3999L75.6 18.7499L67.95 21.8999L63 19.3499L75.6 13.7999L142.8 47.3999L129.9 53.8499Z" fill="#1D5AA7"/>
</svg>
