<svg width="150" height="150" viewBox="0 0 150 150" fill="none" xmlns="http://www.w3.org/2000/svg">
<path d="M115.35 92.3999H110.85V28.0499H103.2V23.5499H115.35V92.3999Z" fill="#2299D5"/>
<path d="M87.6 125.4H33.3V113.25H37.8V120.9H87.6V125.4Z" fill="#2299D5"/>
<path d="M80.7 115.5H23.55V40.7999L50.55 13.7999H105.45V86.5499H100.95V18.2999H52.5L28.05 42.7499V111H80.7V115.5Z" fill="#2299D5"/>
<path d="M53.7 44.0999H25.8V39.5999H49.2V16.0499H53.7V44.0999Z" fill="#2299D5"/>
<path d="M106.35 142.95C105.3 142.95 104.1 142.8 102.9 142.65L101.55 142.5L98.7 134.55C97.8 134.25 96.9 133.8 96 133.5L88.2 137.25L87.15 136.35C85.35 135 83.85 133.35 82.35 131.55L81.45 130.5L85.2 122.7C84.75 121.8 84.45 120.9 84.15 120L76.2 117.15L76.05 115.8C75.9 114.6 75.75 113.4 75.75 112.35C75.75 111.3 75.9 110.1 76.05 108.9L76.2 107.55L84.15 104.7C84.45 103.8 84.9 102.9 85.2 102L81.45 94.1999L82.35 93.1499C83.7 91.3499 85.35 89.85 87.15 88.35L88.2 87.4499L96 91.1999C96.9 90.7499 97.8 90.4499 98.7 90.1499L101.55 82.1999L102.9 82.05C105.3 81.75 107.25 81.75 109.65 82.05L111 82.1999L113.85 90.1499C114.75 90.4499 115.65 90.8999 116.55 91.1999L124.35 87.4499L125.4 88.35C127.2 89.7 128.7 91.3499 130.2 93.1499L131.1 94.1999L127.5 102C127.95 102.9 128.25 103.8 128.55 104.7L136.5 107.55L136.65 108.9C136.8 110.1 136.95 111.3 136.95 112.35C136.95 113.4 136.8 114.6 136.65 115.8L136.5 117.15L128.55 120C128.25 120.9 127.8 121.8 127.5 122.7L131.25 130.5L130.35 131.55C128.85 133.35 127.35 134.85 125.55 136.35L124.5 137.25L116.7 133.5C115.8 133.95 114.9 134.25 114 134.55L111 142.65L109.65 142.8C108.45 142.95 107.4 142.95 106.35 142.95ZM104.85 138.45C105.9 138.6 106.8 138.6 107.85 138.45L110.55 130.95L111.6 130.65C112.95 130.2 114.3 129.75 115.65 129L116.7 128.4L123.9 131.85C124.65 131.25 125.4 130.5 126 129.75L122.55 122.55L123.15 121.5C123.75 120.3 124.35 118.95 124.8 117.45L125.1 116.4L132.6 113.7C132.6 113.25 132.6 112.65 132.6 112.2C132.6 111.75 132.6 111.3 132.6 110.7L125.1 108L124.5 107.1C124.05 105.75 123.6 104.4 122.85 103.05L122.4 102L125.85 94.8C125.1 94.05 124.5 93.2999 123.75 92.6999L116.55 96.1499L115.5 95.6999C114.3 95.0999 112.95 94.5 111.45 94.05L110.4 93.75L107.7 86.25C106.65 86.1 105.75 86.1 104.7 86.25L102 93.75L100.95 94.05C99.6 94.5 98.25 94.9499 96.9 95.6999L96 96.1499L88.8 92.6999C88.05 93.4499 87.3 94.05 86.7 94.8L90.15 102L89.55 103.05C88.95 104.25 88.35 105.6 87.9 107.1L87.6 108.15L80.1 110.85C80.1 111.3 80.1 111.9 80.1 112.35C80.1 112.8 80.1 113.25 80.1 113.85L87.6 116.55L87.9 117.6C88.35 118.95 88.8 120.3 89.55 121.65L90 122.7L86.55 129.9C87.3 130.65 87.9 131.4 88.65 132L95.85 128.55L96.9 129C98.1 129.6 99.45 130.2 100.95 130.65L102 130.95L104.85 138.45ZM106.35 121.65C103.8 121.65 101.55 120.75 99.75 118.95C97.95 117.15 97.05 114.9 97.05 112.35C97.05 109.8 97.95 107.55 99.75 105.75C101.55 103.95 103.8 103.05 106.35 103.05C108.9 103.05 111.15 103.95 112.95 105.75C114.75 107.55 115.65 109.8 115.65 112.35C115.65 114.9 114.75 117.15 112.95 118.95C111 120.75 108.75 121.65 106.35 121.65ZM102.9 108.9C101.85 109.95 101.4 111 101.4 112.35C101.4 113.7 101.85 114.75 102.9 115.8C103.95 116.85 105 117.3 106.35 117.3C107.7 117.3 108.75 116.85 109.8 115.8C110.85 114.75 111.3 113.7 111.3 112.35C111.3 111 110.85 109.95 109.8 108.9C108.75 107.85 107.7 107.4 106.35 107.4C105 107.4 103.8 107.85 102.9 108.9Z" fill="#215BA7"/>
<path d="M86.25 54.1499H40.95V58.6499H86.25V54.1499Z" fill="#2299D5"/>
<path d="M86.25 64.5H54.45V69H86.25V64.5Z" fill="#2299D5"/>
<path d="M86.25 74.8499H40.95V79.3499H86.25V74.8499Z" fill="#2299D5"/>
</svg>
