<svg width="150" height="150" viewBox="0 0 150 150" fill="none" xmlns="http://www.w3.org/2000/svg">
<path d="M19.2001 36V26.85H130.65V35.4C130.95 35.4 131.4 35.4 131.7 35.55C132.6 35.7 133.5 35.7 134.4 35.85C134.7 35.85 135 36 135.15 36V22.35H14.7001V35.7C16.0501 35.85 17.4001 35.85 18.7501 35.85C18.9001 35.85 19.0501 36 19.2001 36Z" fill="#2299D5"/>
<path d="M131.55 94.95C132.75 94.95 133.8 95.25 135 95.85C135 95.85 135 94.35 135.15 94.35V62.85C134.55 63.15 133.8 63.45 133.05 63.75C132 64.05 131.25 63.75 130.65 63.15V95.1C130.95 94.95 131.25 94.95 131.55 94.95Z" fill="#2299D5"/>
<path d="M91.5001 118.35C90.3001 117.45 89.7001 115.95 89.8501 114.3H19.2001V62.55C18.0001 63 16.6501 63 15.4501 62.85C15.1501 62.85 15.0001 62.85 14.7001 62.7V118.8H91.5001C91.5001 118.65 91.5001 118.5 91.5001 118.35Z" fill="#2299D5"/>
<path d="M30.4499 56.25C30.4499 52.2 27.1499 49.05 23.2499 49.05C19.3499 49.05 16.0499 52.35 16.0499 56.25H30.4499Z" fill="#1D5AA7"/>
<path d="M23.1 49.2C25.4196 49.2 27.3 47.3196 27.3 45C27.3 42.6804 25.4196 40.8 23.1 40.8C20.7804 40.8 18.9 42.6804 18.9 45C18.9 47.3196 20.7804 49.2 23.1 49.2Z" fill="#1D5AA7"/>
<path d="M39.9 81.75C39.9 79.05 37.65 76.8 34.95 76.8C32.25 76.8 30 79.05 30 81.75H39.9Z" fill="#2299D5"/>
<path d="M34.9501 77.1C36.6069 77.1 37.9501 75.7569 37.9501 74.1C37.9501 72.4432 36.6069 71.1 34.9501 71.1C33.2932 71.1 31.9501 72.4432 31.9501 74.1C31.9501 75.7569 33.2932 77.1 34.9501 77.1Z" fill="#2299D5"/>
<path d="M118.35 41.7H37.5V46.2H118.35V41.7Z" fill="#1D5AA7"/>
<path d="M62.1 50.1H37.5V54.6H62.1V50.1Z" fill="#1D5AA7"/>
<path d="M68.25 73.8H43.65V78.3H68.25V73.8Z" fill="#2299D5"/>
<path d="M39.9 103.2C39.9 100.5 37.65 98.25 34.95 98.25C32.25 98.25 30 100.5 30 103.2H39.9Z" fill="#2299D5"/>
<path d="M34.9501 98.55C36.6069 98.55 37.9501 97.2069 37.9501 95.55C37.9501 93.8932 36.6069 92.55 34.9501 92.55C33.2932 92.55 31.9501 93.8932 31.9501 95.55C31.9501 97.2069 33.2932 98.55 34.9501 98.55Z" fill="#2299D5"/>
<path d="M68.25 95.4H43.65V99.9H68.25V95.4Z" fill="#2299D5"/>
<path d="M91.5 81.75C91.5 79.05 89.25 76.8 86.55 76.8C83.85 76.8 81.6 79.05 81.6 81.75H91.5Z" fill="#2299D5"/>
<path d="M86.4 77.1C88.0569 77.1 89.4 75.7569 89.4 74.1C89.4 72.4432 88.0569 71.1 86.4 71.1C84.7432 71.1 83.4 72.4432 83.4 74.1C83.4 75.7569 84.7432 77.1 86.4 77.1Z" fill="#2299D5"/>
<path d="M119.7 73.8H95.1V78.3H119.7V73.8Z" fill="#2299D5"/>
<path d="M91.5 103.2C91.5 100.5 89.25 98.25 86.55 98.25C83.85 98.25 81.6 100.5 81.6 103.2H91.5Z" fill="#2299D5"/>
<path d="M86.4 98.55C88.0569 98.55 89.4 97.2069 89.4 95.55C89.4 93.8932 88.0569 92.55 86.4 92.55C84.7432 92.55 83.4 93.8932 83.4 95.55C83.4 97.2069 84.7432 98.55 86.4 98.55Z" fill="#2299D5"/>
<path d="M143.85 64.2H5.25V33H143.85V64.2ZM9.75 59.7H139.35V37.5H9.75V59.7Z" fill="#1D5AA7"/>
<path d="M118.35 145.95C117.3 145.95 116.1 145.8 114.9 145.65L113.55 145.5L110.7 137.55C109.8 137.25 108.9 136.8 108 136.5L100.2 140.25L99.15 139.35C97.35 138 95.85 136.35 94.35 134.55L93.45 133.5L97.2 125.7C96.75 124.8 96.45 123.9 96.15 123L88.05 120L87.9 118.65C87.75 117.45 87.6 116.25 87.6 115.2C87.6 114.15 87.75 112.95 87.9 111.75L88.05 110.4L96 107.55C96.3 106.65 96.75 105.75 97.05 104.85L93.3 97.05L94.2 96C95.55 94.2 97.2 92.7 99 91.2L100.05 90.3L107.85 94.05C108.75 93.6 109.65 93.3 110.55 93L113.4 85.05L114.75 84.9C117.15 84.6 119.1 84.6 121.5 84.9L122.85 85.05L126 93C126.9 93.3 127.8 93.75 128.7 94.05L136.5 90.3L137.55 91.2C139.35 92.55 140.85 94.2 142.35 96L143.25 97.05L139.5 105C139.95 105.9 140.25 106.8 140.55 107.7L148.5 110.55L148.65 111.9C148.8 113.1 148.95 114.3 148.95 115.35C148.95 116.4 148.8 117.6 148.65 118.8V120L140.7 122.85C140.4 123.75 139.95 124.65 139.65 125.55L143.4 133.35L142.5 134.4C141 136.2 139.5 137.7 137.7 139.2L136.5 140.1L128.7 136.5C127.8 136.95 126.9 137.25 126 137.55L123.15 145.5L121.8 145.65C120.6 145.95 119.4 145.95 118.35 145.95ZM116.85 141.45C117.9 141.6 118.8 141.6 119.85 141.45L122.55 133.95L123.6 133.65C124.95 133.2 126.3 132.75 127.65 132L128.7 131.4L135.9 134.85C136.65 134.25 137.4 133.5 138 132.75L134.55 125.55L135 124.5C135.6 123.3 136.2 121.95 136.65 120.45L136.95 119.4L144.45 116.7C144.45 116.25 144.45 115.65 144.45 115.2C144.45 114.75 144.45 114.3 144.45 113.7L136.95 111L136.65 109.95C136.2 108.6 135.75 107.25 135 105.9L134.55 105L138 97.8C137.25 97.05 136.65 96.3 135.9 95.7L128.7 99.15L127.65 98.55C126.45 97.95 125.1 97.35 123.6 96.9L122.55 96.6L119.85 89.1C118.8 88.95 117.9 88.95 116.85 89.1L114.15 96.6L113.1 96.9C111.75 97.35 110.4 97.8 109.05 98.55L108 99.15L100.8 95.7C100.05 96.45 99.3 97.05 98.7 97.8L102.15 105L101.55 106.05C100.95 107.25 100.35 108.6 99.9 110.1L99.6 111.15L92.1 113.85C92.1 114.3 92.1 114.9 92.1 115.35C92.1 115.8 92.1 116.25 92.1 116.85L99.6 119.55L99.9 120.6C100.35 121.95 100.8 123.3 101.55 124.65L102 125.7L98.55 132.9C99.3 133.65 99.9 134.4 100.65 135L107.85 131.55L108.9 132C110.1 132.6 111.45 133.2 112.95 133.65L114 133.95L116.85 141.45ZM118.35 124.65C115.8 124.65 113.55 123.75 111.75 121.95C109.95 120.15 109.05 117.9 109.05 115.35C109.05 112.8 109.95 110.55 111.75 108.75C113.55 106.95 115.8 106.05 118.35 106.05C120.9 106.05 123.15 106.95 124.95 108.75C126.75 110.55 127.65 112.8 127.65 115.35C127.65 117.9 126.75 120.15 124.95 121.95C123.15 123.75 120.9 124.65 118.35 124.65ZM114.9 111.9C113.85 112.95 113.4 114 113.4 115.35C113.4 116.7 113.85 117.75 114.9 118.8C115.95 119.85 117 120.3 118.35 120.3C119.7 120.3 120.75 119.85 121.8 118.8C122.85 117.75 123.3 116.7 123.3 115.35C123.3 114 122.85 112.95 121.8 111.9C120.75 110.85 119.7 110.4 118.35 110.4C117 110.4 115.95 110.85 114.9 111.9Z" fill="#1D5AA7"/>
</svg>
