<svg width="150" height="150" viewBox="0 0 150 150" fill="none" xmlns="http://www.w3.org/2000/svg">
<path d="M72.3 69.9L42 55V52.5V50L72.3 35.1L101.795 50.0938V52.3438V55.1525L72.3 69.9ZM47.5 52.5L72.3 64.95L97.05 52.5L72.15 40.05L47.5 52.5Z" fill="#2299D5"/>
<path d="M36.45 39.6C34.8 39.6 33 39.15 31.35 38.4C25.95 35.55 23.85 28.95 26.7 23.55C29.55 18.15 36.15 16.05 41.55 18.9C44.1 20.25 46.05 22.5 46.95 25.35C47.85 28.2 47.55 31.2 46.2 33.75C44.25 37.5 40.5 39.6 36.45 39.6ZM36.45 22.05C34.05 22.05 31.8 23.4 30.6 25.5C28.95 28.65 30.15 32.7 33.3 34.35C36.45 36 40.5 34.8 42.15 31.65C42.9 30.15 43.05 28.35 42.6 26.7C42.15 25.05 40.95 23.7 39.45 22.8C38.55 22.35 37.5 22.05 36.45 22.05Z" fill="#1D5AA7"/>
<path d="M132.45 113.25C126.3 113.25 121.35 108.3 121.35 102.15C121.35 96 126.3 91.05 132.45 91.05C138.6 91.05 143.55 96 143.55 102.15C143.55 108.3 138.45 113.25 132.45 113.25ZM132.45 95.7C128.85 95.7 125.85 98.7 125.85 102.3C125.85 105.9 128.85 108.9 132.45 108.9C136.05 108.9 139.05 105.9 139.05 102.3C139.05 98.7 136.05 95.7 132.45 95.7Z" fill="#1D5AA7"/>
<path d="M29.55 137.85C23.4 137.85 18.45 132.9 18.45 126.75C18.45 120.6 23.4 115.65 29.55 115.65C35.7 115.65 40.65 120.6 40.65 126.75C40.65 132.9 35.7 137.85 29.55 137.85ZM29.55 120.3C25.95 120.3 22.95 123.3 22.95 126.9C22.95 130.5 25.95 133.5 29.55 133.5C33.15 133.5 36.15 130.5 36.15 126.9C36.15 123.3 33.15 120.3 29.55 120.3Z" fill="#1D5AA7"/>
<path d="M45.4177 30.7662L43.2172 34.6915L60.227 44.227L62.4275 40.3017L45.4177 30.7662Z" fill="#1D5AA7"/>
<path d="M101.09 85.7774L99.3794 89.9395L124.299 100.18L126.009 96.0184L101.09 85.7774Z" fill="#1D5AA7"/>
<path d="M54.2721 109.339L35.7092 120.088L37.9642 123.982L56.527 113.233L54.2721 109.339Z" fill="#1D5AA7"/>
<path d="M75 64.9501H70.05V118.2H75V64.9501Z" fill="#2299D5"/>
<path d="M72.3 123L42 107.914V105.434V102.954L72.15 87.75L101.776 102.5V105V108.136L72.3 123ZM47.7 105.45L72.3 117.75L96.9 105.45L72.3 93.15L47.7 105.45Z" fill="#2299D5"/>
<path d="M47.1 108L42 105.45V52.5L47.25 55.2L47.1 108Z" fill="#2299D5"/>
<path d="M72.3 123L42 108V102.75L72.3 117.75V123Z" fill="#1D5AA7"/>
<path d="M45.9247 51.7942L45.2682 51.5L44.1341 50.9736L43.129 50.5415L42 50.0356L72.3 34.9501V40L47.5 52.5L45.9247 51.7942Z" fill="#1D5AA7"/>
<path d="M101.8 108.1L97 110.5V52.5L101.8 50.1V108.1Z" fill="#1D5AA7"/>
</svg>
