<svg width="150" height="150" viewBox="0 0 150 150" fill="none" xmlns="http://www.w3.org/2000/svg">
<path d="M75 106.95L54 96.3894V93.9144V91.4394L75 81.0001L96.5 91.8123V94.0501V96.2623L75 106.95ZM59.1 94.0501L75 102L90.9 94.0501L75 86.1001L59.1 94.0501Z" fill="#2299D5"/>
<path d="M75 69.7501L54 59.2501V56.5V54.1502L75 43.6501L96.5 54.4001V56.7001V59.0002L75 69.7501ZM58.95 56.7001L75 64.6501L91.05 56.7001L75 48.7501L58.95 56.7001Z" fill="#2299D5"/>
<path d="M58.5 56.7001H54V94.0501H58.5V56.7001Z" fill="#2299D5"/>
<path d="M96.5 56.7001H92V94.0501H96.5V56.7001Z" fill="#2299D5"/>
<path d="M77.25 65.4001H72.75V102.9H77.25V65.4001Z" fill="#2299D5"/>
<path d="M31.5 90.3H4.19999V88.05C4.19999 80.55 10.35 74.4 17.85 74.4C25.35 74.4 31.5 80.55 31.5 88.05V90.3ZM8.99999 85.8H26.7C25.65 81.9 22.05 78.9 17.85 78.9C13.65 78.9 9.89999 81.9 8.99999 85.8Z" fill="#1D5AA7"/>
<path d="M17.7 74.4001C13.5 74.4001 10.05 70.9501 10.05 66.7501C10.05 62.5501 13.5 59.1001 17.7 59.1001C21.9 59.1001 25.35 62.5501 25.35 66.7501C25.35 70.9501 22.05 74.4001 17.7 74.4001ZM17.7 63.6001C15.9 63.6001 14.55 64.9501 14.55 66.7501C14.55 68.5501 15.9 69.9001 17.7 69.9001C19.5 69.9001 20.85 68.5501 20.85 66.7501C20.85 64.9501 19.5 63.6001 17.7 63.6001Z" fill="#1D5AA7"/>
<path d="M146.85 88.3501H119.55V86.1001C119.55 78.6001 125.7 72.4501 133.2 72.4501C140.7 72.4501 146.85 78.6001 146.85 86.1001V88.3501ZM124.35 83.8501H142.05C141 79.9501 137.4 76.9501 133.2 76.9501C129 76.9501 125.25 79.9501 124.35 83.8501Z" fill="#1D5AA7"/>
<path d="M133.2 72.4502C129 72.4502 125.55 69.0002 125.55 64.8002C125.55 60.6002 129 57.1501 133.2 57.1501C137.4 57.1501 140.85 60.6002 140.85 64.8002C140.85 69.0002 137.4 72.4502 133.2 72.4502ZM133.2 61.6501C131.4 61.6501 130.05 63.0002 130.05 64.8002C130.05 66.6002 131.4 67.9501 133.2 67.9501C135 67.9501 136.35 66.6002 136.35 64.8002C136.35 63.0002 134.85 61.6501 133.2 61.6501Z" fill="#1D5AA7"/>
<path d="M127.5 55.8001C121.05 38.4001 106.35 25.6501 88.35 21.3001L89.4 16.9501C108.9 21.6001 124.65 35.4001 131.7 54.1501L127.5 55.8001Z" fill="#2299D5"/>
<path d="M23.85 55.8L19.65 54.15C25.8 37.65 39 24.75 55.5 18.75C57 18.15 58.65 17.7 60.15 17.25L61.35 21.6C59.85 22.05 58.5 22.5 57 22.95C41.7 28.5 29.55 40.5 23.85 55.8Z" fill="#2299D5"/>
<path d="M63.15 133.65C42.6 129.3 25.65 114.3 18.9 94.3501L23.1 92.8501C29.4 111.3 45 125.1 64.05 129.15L63.15 133.65Z" fill="#2299D5"/>
<path d="M87.6 133.8L86.7 129.45C106.5 125.4 122.4 110.85 128.4 91.6501L132.75 93.0001C126.3 113.85 109.05 129.45 87.6 133.8Z" fill="#2299D5"/>
<path d="M88.65 33.15H61.35V30.9C61.35 23.4 67.5 17.25 75 17.25C82.5 17.25 88.65 23.4 88.65 30.9V33.15ZM66.15 28.65H84C82.95 24.75 79.35 21.75 75.15 21.75C70.95 21.75 67.2 24.75 66.15 28.65Z" fill="#1D5AA7"/>
<path d="M75 17.2501C70.8 17.2501 67.35 13.8001 67.35 9.60007C67.35 5.40007 70.8 1.95007 75 1.95007C79.2 1.95007 82.65 5.40007 82.65 9.60007C82.65 13.8001 79.2 17.2501 75 17.2501ZM75 6.45007C73.2 6.45007 71.85 7.80007 71.85 9.60007C71.85 11.4001 73.2 12.7501 75 12.7501C76.8 12.7501 78.15 11.4001 78.15 9.60007C78.15 7.80007 76.8 6.45007 75 6.45007Z" fill="#1D5AA7"/>
<path d="M88.65 148.35H61.35V146.1C61.35 138.6 67.5 132.45 75 132.45C82.5 132.45 88.65 138.6 88.65 146.1V148.35ZM66.15 143.85H84C82.95 139.95 79.35 136.95 75.15 136.95C70.95 136.95 67.2 139.95 66.15 143.85Z" fill="#1D5AA7"/>
<path d="M75 132.45C70.8 132.45 67.35 129 67.35 124.8C67.35 120.6 70.8 117.15 75 117.15C79.2 117.15 82.65 120.6 82.65 124.8C82.65 129 79.2 132.45 75 132.45ZM75 121.65C73.2 121.65 71.85 123 71.85 124.8C71.85 126.6 73.2 127.95 75 127.95C76.8 127.95 78.15 126.6 78.15 124.8C78.15 123 76.8 121.65 75 121.65Z" fill="#1D5AA7"/>
</svg>
