<svg width="150" height="150" viewBox="0 0 150 150" fill="none" xmlns="http://www.w3.org/2000/svg">
<path d="M33.75 112.8L27.9 104.4L31.5 101.85L34.35 105.75L41.4 98.25L44.7 101.25L33.75 112.8Z" fill="#2299D5"/>
<path d="M33.75 45.3001L27.9 36.9001L31.5 34.2001L34.35 38.2501L41.4 30.6001L44.7 33.7501L33.75 45.3001Z" fill="#2299D5"/>
<path d="M19.5056 62.9836L16.3236 66.1655L30.8545 80.6964L34.0365 77.5145L19.5056 62.9836Z" fill="#2299D5"/>
<path d="M30.9599 62.9852L16.429 77.5161L19.6109 80.6981L34.1418 66.1672L30.9599 62.9852Z" fill="#2299D5"/>
<path d="M95.85 121.95H18.3V91.05H22.8V117.45H95.85V121.95Z" fill="#2299D5"/>
<path d="M113.25 51.7501H108.75V25.2001H22.8V51.7501H18.3V20.7001H113.25V51.7501Z" fill="#2299D5"/>
<path d="M93.15 92.5501H3.75V50.1001H127.8V88.5001H123.3V54.6001H8.25V88.0501H93.15V92.5501Z" fill="#2299D5"/>
<path d="M72.75 106.5H55.35V111H72.75V106.5Z" fill="#2299D5"/>
<path d="M81.45 99.6001H55.35V104.1H81.45V99.6001Z" fill="#2299D5"/>
<path d="M95.1 38.7001H55.35V43.2001H95.1V38.7001Z" fill="#2299D5"/>
<path d="M83.85 31.5H55.35V36H83.85V31.5Z" fill="#2299D5"/>
<path d="M89.55 74.1H51.9V78.6H89.55V74.1Z" fill="#2299D5"/>
<path d="M114.75 64.05H51.9V68.55H114.75V64.05Z" fill="#2299D5"/>
<path d="M115.65 138.6C114.6 138.6 113.4 138.45 112.2 138.3L110.85 138.15L108 130.2C107.1 129.9 106.2 129.45 105.3 129.15L97.5 132.75L96.45 131.85C94.65 130.5 93.15 128.85 91.65 127.05L90.75 126L94.5 118.2C94.05 117.3 93.75 116.4 93.45 115.5L85.5 112.65L85.35 111.3C85.2 110.1 85.05 108.9 85.05 107.85C85.05 106.8 85.2 105.6 85.35 104.4L85.5 103.05L93.45 100.2C93.75 99.3001 94.2 98.4001 94.5 97.5001L90.75 89.7001L91.65 88.6501C93 86.8501 94.65 85.3501 96.45 83.8501L97.5 82.9501L105.3 86.7001C106.2 86.2501 107.1 85.9501 108 85.6501L110.85 77.7001L112.2 77.5501C114.6 77.2501 116.55 77.2501 118.95 77.5501L120.3 77.7001L123.15 85.6501C124.05 85.9501 124.95 86.4001 125.85 86.7001L133.65 82.9501L134.7 83.8501C136.5 85.2001 138 86.8501 139.5 88.6501L140.4 89.7001L136.65 97.5001C137.1 98.4001 137.4 99.3001 137.7 100.2L145.65 103.05L145.8 104.4C145.95 105.6 146.1 106.8 146.1 107.85C146.1 108.9 145.95 110.1 145.8 111.3L145.65 112.65L137.7 115.5C137.4 116.4 136.95 117.3 136.65 118.2L140.4 126L139.5 127.2C138 129 136.5 130.5 134.7 132L133.65 132.9L126 129.15C125.1 129.6 124.2 129.9 123.3 130.2L120.45 138.15L119.1 138.3C117.75 138.6 116.7 138.6 115.65 138.6ZM114.15 134.1C115.2 134.25 116.1 134.25 117.15 134.1L119.85 126.6L120.9 126.3C122.25 125.85 123.6 125.4 124.95 124.65L126 124.05L133.2 127.5C133.95 126.9 134.7 126.15 135.3 125.4L131.85 118.2L132.45 117.15C133.05 115.95 133.65 114.6 134.1 113.1L134.4 112.05L141.9 109.35C141.9 108.9 141.9 108.3 141.9 107.85C141.9 107.4 141.9 106.95 141.9 106.35L134.4 103.65L134.1 102.6C133.65 101.25 133.2 99.9001 132.45 98.5501L131.85 97.5001L135.3 90.3001C134.55 89.5501 133.95 88.8001 133.2 88.2001L126 91.6501L124.95 91.0501C123.75 90.4501 122.4 89.8501 120.9 89.4001L119.85 89.1001L117.15 81.6001C116.1 81.4501 115.2 81.4501 114.15 81.6001L111.45 89.1001L110.4 89.4001C109.05 89.8501 107.7 90.3001 106.35 91.0501L105.3 91.6501L98.1 88.2001C97.35 88.9501 96.6 89.5501 96 90.3001L99.45 97.5001L99 98.7001C98.4 99.9001 97.8 101.25 97.35 102.75L97.05 103.8L89.55 106.5C89.55 106.95 89.55 107.55 89.55 108C89.55 108.45 89.55 108.9 89.55 109.5L97.05 112.2L97.35 113.25C97.8 114.6 98.25 115.95 99 117.3L99.45 118.35L96 125.4C96.75 126.15 97.35 126.9 98.1 127.5L105.3 124.05L106.35 124.5C107.55 125.1 108.9 125.7 110.4 126.15L111.45 126.45L114.15 134.1ZM115.65 117.3C113.1 117.3 110.85 116.4 109.05 114.6C107.25 112.8 106.35 110.55 106.35 108C106.35 105.45 107.25 103.2 109.05 101.4C110.85 99.6001 113.1 98.7001 115.65 98.7001C118.2 98.7001 120.45 99.6001 122.25 101.4C124.05 103.2 124.95 105.45 124.95 108C124.95 110.55 124.05 112.8 122.25 114.6C120.3 116.4 118.2 117.3 115.65 117.3ZM112.2 104.55C111.15 105.6 110.7 106.65 110.7 108C110.7 109.35 111.15 110.4 112.2 111.45C113.25 112.5 114.3 112.95 115.65 112.95C117 112.95 118.05 112.5 119.1 111.45C120.15 110.4 120.6 109.35 120.6 108C120.6 106.65 120.15 105.6 119.1 104.55C118.05 103.5 117 103.05 115.65 103.05C114.3 103.05 113.25 103.5 112.2 104.55Z" fill="#215BA7"/>
</svg>
